<?xml version="1.0" standalone="no"?>
<!DOCTYPE svg PUBLIC "-//W3C//DTD SVG 20010904//EN"
 "http://www.w3.org/TR/2001/REC-SVG-20010904/DTD/svg10.dtd">
<svg version="1.0" xmlns="http://www.w3.org/2000/svg"
 width="796.000000pt" height="796.000000pt" viewBox="0 0 796.000000 796.000000"
 preserveAspectRatio="xMidYMid meet">
<metadata>
Created by potrace 1.14, written by Peter Selinger 2001-2017
</metadata>
<g transform="translate(0.000000,796.000000) scale(0.100000,-0.100000)"
fill="#000000" stroke="none">
<path d="M2249 7506 c-2 -3 -18 -7 -34 -10 -17 -2 -30 -5 -30 -6 0 -1 -7 -3
-16 -5 -41 -8 -132 -60 -169 -97 -77 -77 -110 -171 -105 -295 2 -43 6 -87 8
-99 24 -100 82 -242 141 -341 32 -53 138 -205 156 -223 3 -3 30 -34 60 -70
116 -136 264 -272 430 -394 41 -31 80 -59 86 -63 20 -15 49 -33 134 -80 197
-111 368 -172 633 -228 11 -2 45 -7 76 -11 63 -7 91 8 91 47 0 30 -120 222
-251 400 -27 37 -49 72 -49 78 0 6 -4 11 -8 11 -4 0 -24 21 -44 48 -20 26 -50
61 -65 78 -15 17 -50 57 -78 89 -27 32 -71 81 -96 109 -101 111 -118 130 -114
134 1 2 21 -8 44 -22 22 -14 45 -26 51 -26 5 0 10 -5 10 -11 0 -5 5 -7 10 -4
6 3 10 3 10 -2 0 -4 12 -14 28 -20 47 -21 253 -162 342 -234 113 -91 331 -317
348 -361 5 -12 19 -10 19 5 0 11 8 70 16 120 5 26 -18 191 -28 207 -2 4 -7 20
-9 36 -19 102 -118 364 -138 364 -4 0 -8 9 -8 19 0 11 -4 22 -10 26 -5 3 -21
28 -36 55 -15 28 -31 50 -36 50 -4 0 -8 6 -8 14 0 8 -3 16 -7 18 -5 2 -27 28
-51 60 -36 47 -102 115 -213 221 -11 9 -23 17 -29 17 -5 0 -10 4 -10 8 0 5
-25 26 -56 48 -30 21 -61 44 -67 50 -16 14 -158 100 -234 141 -114 62 -258
114 -383 138 -41 8 -305 17 -311 11z"/>
<path d="M5198 7154 c-3 -2 -22 -6 -44 -8 -52 -5 -137 -27 -148 -37 -6 -5 -16
-9 -24 -9 -22 0 -150 -67 -207 -108 -85 -62 -159 -136 -271 -275 -58 -71 -156
-246 -201 -357 -45 -110 -46 -114 -48 -122 -2 -5 -3 -9 -5 -10 -1 -2 -3 -10
-5 -18 -2 -8 -11 -42 -21 -75 -9 -33 -17 -67 -19 -75 -2 -8 -8 -33 -13 -55
-26 -95 -34 -267 -14 -287 25 -25 56 3 167 157 42 58 142 172 195 222 55 52
173 144 177 139 4 -3 -95 -186 -109 -203 -6 -7 -7 -13 -3 -13 4 0 0 -11 -9
-25 -9 -13 -25 -48 -36 -77 -11 -29 -25 -62 -30 -73 -15 -34 -60 -192 -60
-211 1 -29 32 -61 66 -67 29 -6 247 59 331 98 17 8 36 15 42 15 6 0 11 5 11
12 0 6 3 9 6 5 6 -5 117 50 209 104 89 51 235 168 320 254 167 169 255 327
301 540 12 53 11 190 -1 235 -40 151 -149 260 -310 311 -37 11 -238 22 -247
13z"/>
<path d="M2399 5736 c-2 -2 -42 -6 -89 -9 -47 -4 -98 -9 -115 -13 -16 -3 -39
-7 -50 -9 -46 -7 -164 -46 -220 -71 -33 -15 -63 -28 -66 -28 -12 -2 -198 -119
-221 -140 -13 -12 -36 -32 -53 -44 -79 -61 -213 -203 -287 -304 -21 -29 -41
-57 -46 -63 -13 -17 -46 -69 -58 -90 -6 -11 -31 -56 -55 -100 -62 -111 -89
-178 -89 -219 0 -38 18 -86 32 -86 4 0 8 -5 8 -11 0 -6 14 -28 30 -48 17 -20
34 -41 39 -46 132 -171 474 -495 567 -537 13 -6 24 -15 24 -20 0 -4 6 -8 14
-8 8 0 16 -3 18 -7 5 -13 316 -193 333 -193 4 0 21 -10 38 -22 18 -13 32 -22
32 -20 0 2 59 -24 130 -58 72 -34 139 -65 150 -70 35 -16 220 -92 230 -94 6
-2 24 -9 40 -16 46 -19 342 -117 410 -135 119 -33 130 -36 155 -41 14 -3 33
-7 42 -10 9 -3 26 -7 37 -9 12 -3 29 -7 39 -9 51 -13 167 -36 195 -40 18 -2
43 -7 57 -10 14 -3 41 -7 60 -10 19 -3 55 -7 80 -11 189 -25 317 -29 344 -11
13 8 23 20 23 28 0 7 4 38 7 68 4 30 9 73 11 95 5 49 8 60 35 159 49 177 130
354 232 506 80 120 90 132 218 260 310 312 664 461 985 417 118 -17 241 -65
318 -125 91 -72 193 -222 213 -314 9 -43 10 -245 1 -280 -45 -176 -178 -406
-303 -523 -86 -81 -206 -175 -222 -175 -6 0 -12 -4 -14 -8 -3 -9 -143 -93
-162 -97 -6 -1 -38 -14 -71 -30 -112 -51 -276 -102 -425 -130 -143 -28 -165
-30 -380 -40 -80 -3 -148 -9 -151 -13 -4 -4 4 -50 17 -102 30 -119 32 -124 34
-127 2 -2 3 -6 4 -10 4 -26 82 -200 111 -248 19 -31 35 -61 35 -66 0 -5 5 -9
10 -9 6 0 10 -4 10 -10 0 -26 206 -234 300 -303 36 -27 72 -54 80 -61 9 -7 22
-15 30 -19 8 -4 38 -20 65 -37 75 -45 219 -113 315 -148 116 -43 332 -100 440
-117 14 -2 25 -4 25 -5 0 -1 14 -3 30 -5 17 -2 45 -6 63 -9 17 -3 47 -8 65
-11 17 -3 46 -8 62 -11 53 -10 69 -12 120 -19 28 -4 52 -8 55 -8 22 -4 55 27
115 109 39 52 78 104 88 116 9 12 17 24 17 28 0 3 8 15 18 26 9 11 24 31 32
45 8 13 38 63 67 110 60 101 155 279 148 279 -3 0 1 10 9 23 34 52 135 327
167 457 17 65 41 175 44 197 2 11 6 29 9 40 3 10 8 41 11 69 7 64 12 91 20
104 3 6 2 10 -4 10 -7 0 -7 9 -3 23 5 12 10 42 12 67 7 77 5 461 -3 530 -4 36
-9 94 -12 130 -4 55 -12 112 -40 285 -14 92 -79 273 -137 385 -54 104 -108
193 -120 198 -5 2 -8 8 -8 13 0 9 -36 66 -50 79 -3 3 -21 25 -40 50 -61 80
-87 106 -260 270 -8 9 -34 29 -55 45 -22 17 -46 36 -53 43 -8 6 -23 17 -35 23
-11 7 -26 16 -31 21 -23 20 -146 96 -146 91 0 -3 -8 1 -18 9 -24 20 -186 98
-205 98 -9 0 -18 4 -21 9 -3 5 -16 11 -28 14 -13 3 -48 12 -80 21 -126 35
-165 40 -313 40 -142 0 -143 0 -322 -38 -12 -3 -30 -9 -40 -14 -10 -6 -21 -10
-26 -10 -4 0 -51 -15 -105 -33 -53 -18 -99 -33 -102 -34 -3 0 -18 -5 -35 -12
-16 -6 -75 -28 -130 -48 -55 -19 -107 -39 -115 -42 -8 -3 -19 -7 -25 -9 -5 -1
-23 -8 -40 -15 -16 -7 -32 -13 -35 -14 -3 -1 -18 -7 -35 -14 -86 -34 -130 -46
-235 -66 -106 -20 -320 -13 -427 14 -83 21 -290 94 -370 131 -24 11 -45 20
-48 20 -2 0 -58 25 -122 55 -65 31 -131 62 -148 69 -48 22 -164 64 -197 72 -5
1 -9 2 -10 4 -4 2 -36 9 -68 15 -14 2 -26 4 -27 6 -5 3 -16 5 -68 14 -27 4
-60 12 -73 16 -15 6 -21 5 -17 -1 4 -6 -2 -7 -17 -2 -13 5 -59 10 -103 11 -44
2 -83 5 -86 7 -3 2 -8 2 -10 0z"/>
<path d="M962 4473 c-22 -43 -100 -288 -91 -288 1 0 -3 -10 -9 -21 -6 -12 -14
-34 -17 -50 -2 -16 -7 -40 -10 -54 -42 -187 -49 -259 -49 -460 1 -192 16 -342
46 -455 6 -22 11 -47 12 -55 1 -8 8 -35 15 -60 7 -25 14 -49 15 -55 5 -26 38
-134 50 -165 19 -47 29 -74 30 -80 8 -42 143 -358 203 -475 91 -179 242 -418
294 -465 3 -3 18 -23 35 -45 16 -22 37 -49 47 -60 10 -11 28 -33 40 -48 30
-39 49 -60 152 -172 148 -162 311 -313 485 -451 41 -32 80 -63 87 -69 7 -5 18
-15 26 -21 7 -6 17 -13 22 -15 6 -2 48 -29 95 -60 92 -60 220 -133 220 -124 0
3 12 -2 27 -12 63 -41 282 -108 414 -126 161 -22 303 -15 469 24 110 26 173
31 235 19 28 -6 61 -12 75 -15 110 -21 226 -51 232 -59 4 -6 8 -8 8 -5 0 4 17
3 38 -2 20 -5 48 -12 62 -14 14 -3 36 -8 50 -11 48 -11 96 -15 190 -16 117 -2
168 5 290 37 36 9 70 18 75 20 6 1 17 4 25 7 8 3 38 13 65 23 209 70 481 201
670 323 11 6 27 15 35 19 8 4 23 14 33 23 9 9 30 23 45 31 14 8 34 19 42 26
62 48 112 83 119 83 5 0 11 3 13 8 2 4 41 37 88 74 47 36 100 82 119 102 31
34 32 38 17 55 -9 10 -22 18 -29 19 -6 0 -32 3 -57 6 -25 2 -76 7 -114 11 -63
6 -124 15 -198 30 -16 3 -38 7 -50 9 -250 49 -590 207 -819 382 -76 58 -245
223 -289 282 -14 19 -31 40 -37 47 -7 8 -13 18 -13 24 0 6 -4 11 -8 11 -5 0
-16 15 -25 33 -10 17 -26 46 -37 62 -22 35 -80 151 -80 163 0 4 -12 30 -25 57
-14 28 -25 60 -25 72 0 12 -4 24 -9 27 -4 3 -12 20 -16 38 -4 18 -9 38 -10 43
-6 21 -15 63 -33 148 -21 104 -37 122 -112 126 -27 1 -59 4 -72 7 -13 2 -52 7
-88 10 -36 2 -78 7 -95 9 -16 3 -46 7 -65 10 -19 2 -51 7 -70 10 -19 2 -47 7
-62 10 -16 3 -38 7 -50 9 -81 15 -196 41 -273 63 -49 14 -97 26 -105 28 -8 1
-22 5 -30 8 -24 8 -75 19 -76 15 0 -2 -7 2 -15 8 -8 7 -41 20 -74 30 -73 21
-67 20 -85 26 -8 4 -28 11 -45 16 -16 6 -55 20 -85 32 -30 12 -59 23 -65 24
-15 4 -67 25 -90 36 -11 5 -67 29 -125 54 -58 24 -139 60 -181 80 -42 20 -81
36 -87 36 -5 0 -12 3 -14 8 -1 4 -28 18 -58 32 -30 14 -57 27 -60 31 -3 3 -27
16 -55 29 -78 37 -248 131 -269 149 -10 9 -21 15 -25 15 -5 -2 -91 52 -126 78
-52 39 -193 156 -224 186 -21 20 -65 62 -97 93 -69 66 -182 185 -239 250 -39
45 -60 71 -109 138 -22 30 -25 31 -34 14z"/>
<path d="M5493 4415 c-29 -7 -53 -10 -53 -7 0 2 -6 0 -12 -6 -7 -6 -16 -10
-21 -10 -44 -2 -274 -100 -313 -135 -8 -7 -37 -28 -65 -47 -121 -81 -296 -276
-396 -440 -42 -70 -117 -236 -129 -285 -4 -16 -11 -36 -17 -42 -5 -7 -7 -13
-4 -13 3 0 1 -16 -5 -36 -34 -123 -41 -235 -17 -259 8 -8 28 -16 44 -19 53
-10 238 -8 285 2 25 6 63 13 85 16 23 4 52 9 65 11 14 3 41 7 60 10 121 15
510 158 510 187 0 4 5 8 11 8 26 0 187 118 259 190 106 106 200 259 226 370 4
19 9 42 11 50 12 51 14 127 4 166 -30 120 -177 254 -316 289 -50 12 -157 12
-212 0z"/>
</g>
</svg>
