<?xml version="1.0" standalone="no"?>
<!DOCTYPE svg PUBLIC "-//W3C//DTD SVG 20010904//EN"
 "http://www.w3.org/TR/2001/REC-SVG-20010904/DTD/svg10.dtd">
<svg version="1.0" xmlns="http://www.w3.org/2000/svg"
 width="724.000000pt" height="724.000000pt" viewBox="0 0 724.000000 724.000000"
 preserveAspectRatio="xMidYMid meet">
<metadata>
Created by potrace 1.14, written by Peter Selinger 2001-2017
</metadata>
<g transform="translate(0.000000,724.000000) scale(0.100000,-0.100000)"
fill="#000000" stroke="none">
<path d="M5530 7215 c-116 -28 -181 -51 -285 -100 -74 -35 -233 -129 -245
-144 -3 -3 -23 -18 -45 -34 -69 -47 -234 -202 -272 -254 -10 -14 -28 -36 -40
-49 -13 -13 -23 -28 -23 -34 0 -5 -3 -10 -7 -10 -5 0 -21 -21 -38 -48 -16 -26
-32 -49 -35 -52 -6 -6 -45 -74 -67 -117 -9 -18 -22 -33 -29 -33 -6 0 -24 19
-39 43 -16 23 -42 54 -59 69 -31 27 -83 42 -92 26 -3 -5 -9 -6 -13 -4 -13 9
-117 -91 -153 -146 -34 -51 -99 -195 -119 -261 -17 -55 -18 -60 -38 -152 -33
-156 -42 -236 -45 -415 -3 -167 17 -273 66 -342 36 -52 56 -41 178 102 136
159 326 327 347 306 4 -4 3 -10 -2 -14 -18 -12 -188 -303 -246 -422 -43 -86
-54 -116 -43 -118 8 -2 14 -7 14 -12 0 -38 478 -22 715 23 11 3 38 8 60 12 22
5 43 8 46 7 4 -1 48 12 99 29 284 91 340 193 196 354 l-36 40 48 24 c26 14 53
26 60 27 8 1 22 10 31 18 10 9 21 16 24 16 13 0 167 99 228 146 144 111 296
275 383 415 23 36 47 74 53 85 15 23 73 141 73 148 0 3 5 17 12 33 6 15 12 33
13 38 2 6 8 30 15 55 21 78 24 102 24 215 0 142 -7 182 -48 271 -58 123 -180
226 -316 265 -79 22 -243 19 -350 -6z"/>
<path d="M1036 6682 c-2 -1 -22 -5 -46 -7 -37 -4 -100 -15 -168 -29 -35 -8
-174 -57 -204 -72 -184 -95 -284 -260 -274 -451 4 -73 11 -102 49 -203 82
-218 263 -424 538 -614 53 -36 100 -66 105 -66 4 0 15 -6 23 -14 20 -18 284
-150 342 -171 82 -30 274 -96 289 -100 66 -14 69 -16 60 -39 -4 -13 -22 -38
-40 -57 -53 -58 -111 -155 -134 -225 -57 -168 -19 -290 119 -382 74 -51 194
-92 307 -107 88 -12 297 -7 443 10 136 15 412 83 444 109 8 6 15 9 15 7 3 -11
218 78 266 109 8 5 31 18 50 28 19 10 69 38 110 62 67 39 93 56 179 118 116
82 163 136 153 174 -5 19 -85 106 -149 160 -57 49 -182 138 -192 138 -6 0 -11
3 -11 8 0 4 -23 21 -51 37 -28 17 -66 38 -83 48 -17 11 -49 29 -71 40 -22 12
-42 25 -45 28 -3 3 -37 20 -77 39 -40 18 -70 36 -68 40 6 10 186 -3 205 -15 3
-2 17 -6 31 -9 13 -2 44 -9 69 -15 25 -7 56 -14 70 -17 50 -11 306 -104 335
-122 6 -4 12 -7 15 -7 3 -1 28 -11 55 -24 28 -13 66 -25 86 -28 33 -5 37 -3
47 26 6 17 9 39 8 48 -2 10 -7 41 -10 68 -12 81 -57 244 -93 335 -61 151 -196
408 -291 556 -42 64 -86 128 -97 140 -5 6 -23 28 -40 49 -79 101 -228 251
-257 261 -10 3 -18 9 -18 14 0 11 -82 49 -151 70 -105 32 -177 8 -217 -71 -36
-73 -34 -223 5 -374 27 -107 28 -119 9 -108 -15 8 -103 83 -138 116 -10 9 -20
17 -23 17 -3 0 -31 20 -62 44 -98 74 -321 197 -448 246 -148 58 -277 98 -405
125 -172 36 -210 43 -300 50 -25 2 -45 4 -45 5 0 3 -216 5 -219 2z"/>
<path d="M4908 4916 c-1 -2 -70 -6 -153 -9 -82 -3 -157 -8 -165 -11 -8 -2 -37
-7 -65 -10 -94 -11 -274 -54 -365 -88 -30 -11 -59 -21 -65 -22 -16 -3 -147
-59 -183 -78 -18 -10 -39 -18 -46 -18 -8 0 -16 -4 -18 -8 -1 -4 -34 -25 -73
-47 -68 -37 -175 -104 -185 -116 -3 -3 -23 -18 -45 -34 -104 -75 -273 -235
-360 -340 -28 -33 -53 -62 -56 -65 -25 -19 -186 -279 -229 -367 -29 -59 -56
-116 -62 -127 -16 -31 -78 -207 -94 -271 -25 -94 -26 -97 -29 -143 -3 -51 21
-88 117 -181 97 -93 190 -149 378 -225 36 -15 74 -31 85 -36 26 -11 203 -69
235 -76 14 -3 43 -10 65 -15 127 -29 158 -34 345 -55 71 -9 328 -8 405 0 109
12 138 15 174 21 20 4 48 8 63 10 15 2 45 9 67 15 36 10 41 14 48 53 5 23 5
44 1 45 -4 2 -6 7 -3 12 2 4 7 45 10 91 17 250 78 463 196 684 36 68 98 167
109 175 4 3 9 10 11 16 5 13 38 58 91 120 20 24 43 51 50 61 12 16 97 94 130
118 49 37 143 81 193 91 11 2 41 8 67 12 63 12 161 8 253 -12 183 -39 318
-162 352 -318 8 -39 7 -183 -1 -218 -3 -14 -8 -34 -11 -45 -23 -102 -96 -236
-180 -333 -230 -265 -538 -460 -920 -583 -55 -17 -108 -40 -117 -52 -22 -25
-18 -106 12 -222 11 -44 22 -84 23 -90 19 -77 126 -278 190 -360 126 -161 224
-235 459 -346 29 -14 180 -49 188 -44 5 3 11 2 14 -3 14 -23 396 -22 522 2 11
2 41 7 68 10 95 13 98 17 167 181 23 55 54 126 70 157 16 32 30 61 31 65 1 5
11 28 24 53 61 123 135 336 158 454 3 16 11 55 17 85 6 31 14 72 16 91 9 72
12 547 3 590 -5 25 -11 64 -14 85 -3 22 -8 51 -11 65 -4 14 -9 39 -12 55 -2
17 -8 39 -12 50 -9 21 -64 197 -64 205 -2 11 -95 221 -104 232 -6 7 -23 39
-39 71 -15 31 -32 57 -36 57 -4 0 -8 5 -8 10 0 13 -88 136 -147 206 -40 48
-161 172 -215 220 -52 46 -197 154 -206 154 -6 0 -12 4 -14 8 -5 13 -119 79
-225 131 -98 48 -274 116 -328 127 -5 1 -28 7 -50 12 -22 6 -53 14 -70 16 -16
3 -41 8 -55 12 -14 3 -41 7 -60 10 -19 2 -48 7 -65 10 -16 3 -73 7 -125 10
-52 3 -100 7 -107 9 -6 2 -13 2 -15 1z"/>
<path d="M5555 3785 c-121 -35 -228 -113 -330 -240 -22 -28 -43 -52 -46 -55
-13 -11 -90 -146 -95 -167 -4 -13 -9 -23 -13 -23 -5 0 -29 -53 -36 -80 -1 -3
-7 -18 -14 -35 -8 -16 -28 -77 -46 -135 -56 -181 -70 -276 -48 -322 15 -31 20
-33 60 -17 43 18 65 26 103 40 100 35 358 180 410 230 8 8 35 30 60 50 143
116 278 275 334 394 55 116 63 184 28 257 -50 102 -213 147 -367 103z"/>
<path d="M2680 2975 c-12 -137 -3 -486 16 -577 6 -31 13 -66 20 -103 8 -44 40
-162 62 -231 36 -110 141 -346 161 -364 3 -3 17 -25 31 -50 13 -25 28 -49 32
-55 4 -5 25 -35 45 -65 20 -30 39 -57 43 -60 3 -3 19 -23 36 -45 112 -151 304
-324 498 -450 92 -60 296 -169 296 -159 0 4 7 1 16 -7 29 -24 286 -109 407
-135 122 -26 155 -32 207 -39 19 -2 46 -7 60 -10 14 -3 36 -7 50 -10 14 -3 36
-7 50 -10 14 -3 36 -8 50 -11 14 -3 35 -7 47 -10 12 -2 34 -9 48 -14 14 -5 29
-9 33 -8 7 2 47 -8 152 -39 82 -23 352 -112 375 -123 11 -5 50 -21 88 -34 82
-31 106 -41 274 -122 73 -35 137 -64 142 -64 5 0 11 -3 13 -7 2 -5 19 -17 38
-27 19 -11 58 -32 85 -47 91 -50 142 -43 177 25 17 33 21 63 23 165 4 165 14
300 31 421 11 87 13 95 14 95 1 0 3 11 6 25 5 29 26 130 30 145 2 6 5 17 7 25
22 90 59 214 68 225 7 9 27 78 35 118 5 27 -20 31 -99 17 -40 -7 -81 -14 -92
-16 -33 -5 -87 -12 -138 -18 -27 -3 -53 -9 -59 -12 -7 -5 -8 -2 -3 6 5 8 4 11
-2 7 -35 -22 -283 -1 -428 36 -38 10 -122 41 -132 50 -7 5 -13 7 -13 4 0 -8
-160 78 -195 105 -87 67 -140 113 -188 163 -61 62 -175 207 -185 235 -3 8 -8
17 -12 20 -10 8 -78 152 -104 222 -14 36 -34 105 -45 154 -33 142 -41 163 -60
173 -10 6 -20 9 -22 7 -2 -2 -33 -7 -69 -11 -36 -4 -76 -8 -90 -10 -14 -1 -56
-6 -95 -11 -131 -14 -394 -9 -530 12 -16 2 -43 6 -60 9 -30 4 -118 20 -165 31
-14 3 -36 7 -50 10 -60 12 -266 67 -275 74 -5 4 -23 10 -40 14 -28 7 -51 17
-160 66 -27 13 -52 24 -55 24 -6 2 -41 24 -134 83 -76 50 -112 80 -202 168
l-61 60 -3 -40z"/>
</g>
</svg>
