<?xml version="1.0" encoding="utf-8"?>
<!-- Generator: Adobe Illustrator 22.0.0, SVG Export Plug-In . SVG Version: 6.00 Build 0)  -->
<svg version="1.1" id="Calque_1" xmlns="http://www.w3.org/2000/svg" xmlns:xlink="http://www.w3.org/1999/xlink" x="0px" y="0px"
	 viewBox="0 0 182.9 198.9" style="enable-background:new 0 0 182.9 198.9;" xml:space="preserve">
<style type="text/css">
	.st0{fill:#FF0959;}
	.st1{fill:#5C9C18;}
</style>
<g>
	<path class="st0" d="M164.7,83.8c-4.9-9.8-12.3-17.3-22-22.4c-8-4.2-16.3-5.1-24.9-2.2c-5.2,1.8-10.4,3.5-15.5,5.6
		c-6.9,2.7-13.7,2.5-20.5-0.1c-3.5-1.3-7-2.7-10.3-4.4c-3.1-1.5-6.2-2.7-9.6-3.5c-10.9-2.5-20.9-1.1-29.8,6.2
		c-5.9,4.8-10.2,10.8-13.4,17.8c-0.8,1.8-0.7,3,0.4,4.4c5.5,7.3,11.9,13.6,19.7,18.2c13.4,7.8,27.6,13.4,42.9,16.3
		c4.2,0.8,8.4,1.3,12.7,1.5c1.4,0.1,2-0.4,2.1-1.8c0.1-1.5,0.2-3.1,0.5-4.6c2.4-10.8,8-19.7,17-26.3c5.9-4.3,12.5-7,20-5.9
		c10,1.5,15.1,10.5,12.6,18.7c-1.9,6.3-5.5,11.2-10.6,15.1c-6.7,5.2-14.5,7.6-22.8,8.8c-3.1,0.4-6.3,0.3-9.7,0.6
		c1.3,6.6,3.5,12.5,8,17.3c6.3,6.7,14.1,10.7,22.9,13c5.1,1.3,10.3,1.9,15.5,2.9c0.9,0.2,1.4-0.1,1.9-0.8c6.8-8.4,12-17.7,14.9-28.1
		c2.6-9.4,3.3-19,2.2-28.7C168.5,95.5,167.5,89.4,164.7,83.8z"/>
	<path class="st0" d="M142.4,164.8c-5.8-0.3-11.5-1.4-17-3.6c-15.2-6.2-25.4-16.7-28.1-33.4c-0.3-1.8-1-2-2.6-2.1
		c-5.8-0.5-11.5-1.2-17.2-2.6c-13.7-3.3-26.4-8.9-38.7-15.7c-4.4-2.4-8.4-5.5-12.1-9.1c-3.6-3.5-7.2-7.1-10.5-11.7
		c-2.5,6.6-4.2,12.8-4.6,19.3c-0.4,8,1,15.7,3.7,23.3c3.1,8.6,6.7,17,12.4,24.3c4.4,5.7,9.2,11.2,14.7,16c4.9,4.3,9.9,8.4,15.8,11.2
		c7.4,3.6,15.1,5,23.3,2.9c1.8-0.5,3.7-0.9,5.5-0.5c3.1,0.7,6.2,1.3,9.3,2.2c4.6,1.2,9.1,1.3,13.7,0.2c11.3-2.9,21.1-8.6,30.3-15.6
		c1.6-1.2,3.3-2.5,4.5-4.2c-0.4-0.2-0.6-0.5-0.9-0.6C143.5,164.9,142.9,164.9,142.4,164.8z"/>
	<path class="st1" d="M42.4,31.5c4.6,8,11,14.3,18.4,19.5c6.3,4.4,13.4,7.1,21,8.3c1,0.1,2.1,0.6,2.7-0.4c0.6-0.9-0.3-1.9-0.7-2.7
		c-0.1-0.2-0.2-0.4-0.3-0.6c-3-4.5-5.9-9-9.5-13.1c-1.2-1.4-2.4-2.8-3.7-4.2c-1.2-1.4-2.5-2.8-3.7-4.1c8.2,4.4,15.9,9.5,21.9,17.7
		c0.7-3.6,0.7-4.7,0-7.9C86,31,78,22.1,66.9,15.8c-5.4-3.1-11.2-5-17.7-4.5c-7.1,0.6-11,5.4-9.7,12.4C40.1,26.5,41.1,29.1,42.4,31.5
		z"/>
	<path class="st1" d="M97.6,56c0.6-0.5,0.9-1.2,1.4-1.8c3.1-4.3,6.4-8.4,11.1-11.3c-0.6,1-1.1,2.1-1.7,3.1c-1.7,3-3.1,6.1-4,9.4
		c-0.3,1.2-1.3,2.6-0.3,3.8c1.1,1.2,2.7,0.5,4,0.1c6.5-2,12.5-4.9,17.7-9.3c5.6-4.8,9.7-10.5,10.3-18.1c0.2-3.1-0.5-5.8-2.7-8.2
		c-3-3.3-6.9-3.9-10.9-3.6c-6.3,0.5-11.6,3.5-15.7,8.2c-5.9,6.7-9.2,14.6-10.6,23.4c-0.2,1.3-0.1,2.6,0,3.9
		C96.3,56.3,96.9,56.6,97.6,56z"/>
	<path class="st0" d="M114.3,120.5c6.5-0.9,12.6-3,18.1-6.7c5.2-3.5,8.8-8.1,10.1-14.4c0.5-2.5,0-4.7-1.5-6.5
		c-2.9-3.6-6.7-5.2-11.3-4.4c-7.6,1.3-13.7,5.5-18.5,11.3c-3.9,4.8-6.7,10.3-7.8,16.5c-0.8,4.8-0.6,4.9,4.4,4.9
		C109.8,121.5,112.1,120.9,114.3,120.5z"/>
</g>
</svg>
