<?xml version="1.0" encoding="utf-8"?>
<!-- Generator: Adobe Illustrator 22.0.0, SVG Export Plug-In . SVG Version: 6.00 Build 0)  -->
<svg version="1.1" id="Calque_1" xmlns="http://www.w3.org/2000/svg" xmlns:xlink="http://www.w3.org/1999/xlink" x="0px" y="0px"
	 viewBox="0 0 479.6 181.2" style="enable-background:new 0 0 479.6 181.2;" xml:space="preserve">
<style type="text/css">
	.st0{display:none;}
	.st1{display:inline;fill:#FF0959;}
	.st2{display:inline;fill:#FF7E00;}
	.st3{display:inline;fill:#5C9C18;}
	.st4{fill:#FF0959;}
	.st5{fill:#FF7E00;}
	.st6{fill:#5C9C18;}
</style>
<g class="st0">
	<path class="st1" d="M94.5,75.1c-4.9-9.8-12.3-17.3-22-22.4c-8-4.2-16.3-5.1-24.9-2.2c-5.2,1.8-10.4,3.5-15.5,5.6
		c-6.9,2.7-13.7,2.5-20.5-0.1c-3.5-1.3-7-2.7-10.3-4.4c-3.1-1.5-6.2-2.7-9.6-3.5c-10.9-2.5-20.9-1.1-29.8,6.2
		C-44,59.1-48.3,65.1-51.5,72c-0.8,1.8-0.7,3,0.4,4.4c5.5,7.3,11.9,13.6,19.7,18.2c13.4,7.8,27.6,13.4,42.9,16.3
		c4.2,0.8,8.4,1.3,12.7,1.5c1.4,0.1,2-0.4,2.1-1.8c0.1-1.5,0.2-3.1,0.5-4.6c2.4-10.8,8-19.7,17-26.3c5.9-4.3,12.5-7,20-5.9
		c10,1.5,15.1,10.5,12.6,18.7c-1.9,6.3-5.5,11.2-10.6,15.1c-6.7,5.2-14.5,7.6-22.8,8.8c-3.1,0.4-6.3,0.3-9.7,0.6
		c1.3,6.6,3.5,12.5,8,17.3c6.3,6.7,14.1,10.7,22.9,13c5.1,1.3,10.3,1.9,15.5,2.9c0.9,0.2,1.4-0.1,1.9-0.8c6.8-8.4,12-17.7,14.9-28.1
		c2.6-9.4,3.3-19,2.2-28.7C98.3,86.9,97.3,80.7,94.5,75.1z"/>
	<path class="st1" d="M72.2,156.2c-5.8-0.3-11.5-1.4-17-3.6c-15.2-6.2-25.4-16.7-28.1-33.4c-0.3-1.8-1-2-2.6-2.1
		c-5.8-0.5-11.5-1.2-17.2-2.6c-13.7-3.3-26.4-8.9-38.7-15.7c-4.4-2.4-8.4-5.5-12.1-9.1c-3.6-3.5-7.2-7.1-10.5-11.7
		c-2.5,6.6-4.2,12.8-4.6,19.3c-0.4,8,1,15.7,3.7,23.3c3.1,8.6,6.7,17,12.4,24.3c4.4,5.7,9.2,11.2,14.7,16c4.9,4.3,9.9,8.4,15.8,11.2
		c7.4,3.6,15.1,5,23.3,2.9c1.8-0.5,3.7-0.9,5.5-0.5c3.1,0.7,6.2,1.3,9.3,2.2c4.6,1.2,9.1,1.3,13.7,0.2c11.3-2.9,21.1-8.6,30.3-15.6
		c1.6-1.2,3.3-2.5,4.5-4.2c-0.4-0.2-0.6-0.5-0.9-0.6C73.3,156.3,72.7,156.2,72.2,156.2z"/>
	<path class="st2" d="M402.2,147.1c-3.2-1.8-6.8-1.8-10.3-1.3c-3.6,0.5-7.1,1.6-10.5,2.7c-3.1,0.9-6.1,1.8-9.4,1.9
		c-3.4,0.1-5.3-1.1-6.1-4.3c-1.2-4.5-0.9-9.2-0.6-13.8c0.1-1,0.5-1.8,1.8-2c6.6-1.2,13-3.3,19.9-2.5c1,0.1,2,0,3-0.1
		c1.1-0.1,1.8-0.8,2-1.9c0.6-2.3-1-5.2-3.2-6c-0.8-0.3-1.7-0.5-2.5-0.7c-3.5-0.8-6.8,0.3-10.1,1c-2.3,0.5-4.5,1.1-6.8,1.3
		c-2.5,0.1-3.1-0.3-3.1-2.7c0-5.8-0.1-11.7,0.7-17.5c0.4-2.9,0.6-3.1,3.6-3.8c8.8-2.1,17.6-4.1,26.8-3.4c2.9,0.2,4.5-1,4.8-3
		c0.4-2.2-0.8-3.9-3.4-5c-2.3-0.9-4.7-1-7.1-0.9c-4,0.3-7.9,0.8-11.8,1.6c-6.2,1.2-12.3,2.2-18.5,3.5c-3.6,0.7-5,2.6-4.9,6.3
		c0.1,1.4,0.3,2.9,0.2,4.3c-0.7,10.2-1.1,20.4-0.9,30.7c-0.2,0-0.4,0-0.4,0c-0.1-0.2-0.2-0.4-0.3-0.6c-1.6-4.6-5.2-5.9-9.7-5.6
		c-1.9,0.1-3.7,0.3-5.6,0.5c-3.9,0.5-7.9,1-11.7,1.9c-2.1,0.5-3.7,1.7-3.9,3.9c-0.3,2.5,0.5,4.9,2.6,6.5c2,1.6,4.1,1,6.2,0
		c0.1,0,0.2-0.1,0.3-0.2c3.7-2.1,7.7-2.4,11.8-2.6c1.3-0.1,1.8,0.5,1.6,1.8c-0.1,0.8-0.2,1.5-0.5,2.2c-2,5.4-5.8,9-11.1,11
		c-1.9,0.8-3.9,0.7-5.8,0.3c-7.1-1.6-11.3-6.2-12.3-13.4c-1.2-7.9-1-15.8,0.7-23.7c1.3-5.9,3.9-11.2,8.2-15.6
		c3.2-3.3,7.1-4.2,11.5-2.8c2.2,0.7,3.6,2.1,4.2,4.3c0.8,3.5,1.2,6.9-0.7,10.3c-1.4,2.6-0.8,4.5,1.5,5.9c2.4,1.4,5.1,0.9,6.7-1.4
		c0.8-1.2,1.3-2.5,1.6-3.9c1-4.4,0.8-8.7-0.5-13c-1.2-4.4-3.9-7.6-7.9-9.7c-4.4-2.3-9-2.8-13.8-1.9c-6.8,1.2-11.5,5.3-15,11
		c-7.2,11.5-9,24.2-7.5,37.5c0.4,3.4,1.1,6.7,2.3,9.9c5.1,13.4,19.3,19.2,32.2,12.9c7.6-3.7,13.1-9.4,15.2-18.4
		c0.7,3.7,1.1,7,2.2,10.1c3,8.1,9.4,11.8,17.9,10.4c3.5-0.6,6.9-1.5,10.2-2.5c4.9-1.4,9.7-3,14.9-2.4c1.2,0.1,2.1-0.5,2.7-1.5
		C405,150.3,404.6,148.4,402.2,147.1z"/>
	<path class="st2" d="M448.8,140.4c-4.3-2.8-8.7-5.5-13.3-8.5c1.3-0.8,2.2-1.3,3.1-1.8c2.8-1.6,5.5-3.3,8-5.3
		c9.6-7.6,10.6-25.4-2.4-33c-6.2-3.6-12.8-5.1-19.8-5.5c-2-0.1-4.2,0.5-5.6-1.8c-0.2-0.3-1-0.3-1.5-0.3c-1.7-0.1-3.3,0.3-4.6,1.4
		c-1.5,1.3-3.1,1.9-4.9,2.5c-2.4,0.8-3.2,2-3.1,4.4c0.1,2.1,0.7,3,3.2,3.4c1.7,0.3,1.6,1.1,1.4,2.2c-0.5,2.9-0.9,5.9-1.3,8.8
		c-0.8,4.9-0.3,9.9-1,14.8c-0.2,1.7-0.7,2.6-2.4,2.9c-1.3,0.3-2.5,0.9-3.4,1.9c-2,1.9-1.9,3.9,0.1,5.7c1.3,1.1,2.7,1.9,4.4,2.1
		c1,0.1,1.3,0.6,1.3,1.5c0,0.8,0,1.5,0,2.3c0.3,4.8,0.2,9.7,1.1,14.5c0.7,3.9,4.5,6,8.2,5.4c3-0.5,4.8-3.4,3.2-5.8
		c-3.1-4.5-2.6-9.9-2.8-15c0-1.1,0.5-1.5,1.6-1.6c2.1-0.1,4.2,0.1,6.1,1.1c10.2,5.3,20.5,10.3,27.5,19.9c1.1,1.4,2.8,1.8,4.4,1.1
		c1.5-0.7,2.4-1.8,2.2-3.6c-0.2-2.5-1-4.7-2.3-6.8C454.2,144.5,451.7,142.2,448.8,140.4z M417.2,125c-0.8-0.2-0.7-1-0.7-1.6
		c0-1.1,0-2.2,0-3.3c0.1-6.9,2-13.5,3.1-20.2c0.1-0.4,0.2-0.9,0.2-1.3c0.4-3.3,0.4-3.3,3.6-3.4c4.8-0.2,9.4,0.5,13.8,2.7
		c6.2,3.1,8.4,8.6,6.2,15.2c-0.9,2.8-2.6,5.1-4.8,7c-3.8,3.4-8.2,5.5-13.1,6.6C422.5,127.4,419.9,125.8,417.2,125z"/>
	<path class="st2" d="M159,101.9c-1.6-7.8-5.7-14-13.7-16.4c-8.2-2.4-15.7-0.7-21.9,5.6c-0.5,0.5-0.9,1.3-1.8,1.4
		c-0.3-1.1-0.4-2.1-0.8-3.2c-1.4-3.9-5.3-5.2-8.9-3.2c-1.4,0.8-2.1,1.8-1.6,3.5c0.9,3.1,0.7,6.3,0.7,9.5c0.1,10-1.3,20-0.9,30.1
		c0,0.7-0.1,1.3-0.2,2c-1,6.5-1,13-0.3,19.4c0.2,1.4,0.4,2.9,1,4.2c1.4,3.1,5.8,4.5,8.8,2.9c2.9-1.5,3.5-4,1.6-7.5
		c-2.1-4-2-8.2-2-13c1.5,0.7,2.4,1.2,3.3,1.6c6,2.9,12.4,3.9,19,2.7c7.6-1.4,12.3-6.4,15.3-13.3C160.3,119.7,160.8,110.8,159,101.9z
		 M150.3,111.6c-0.4,5-1.6,10-3.7,14.7c-2.4,5.4-6.5,8.2-12.8,8c-1.4,0.1-3-0.2-4.6-0.6c-5.2-1.3-8.1-4.6-9.1-9.8
		c-0.9-4.6-0.4-9,1-13.4c1.7-5.2,4.1-10,8-13.9c2.4-2.4,5.2-3.9,8.7-4.2c4.2-0.3,7.2,1.5,9.3,5.1C149.8,102,150.7,106.8,150.3,111.6
		z"/>
	<path class="st2" d="M179.4,87.7c-6.7,3.3-10.9,8.9-14,15.3c-5.7,11.5-6.7,23.6-3.9,36c1.9,8.4,7.1,14.2,15.1,17.5
		c14.4,5.9,28.5,1,36.2-12.6c3.9-6.9,5.5-14.3,5.4-23.4c0-9.2-2.7-18-8.1-25.5C201.8,83.6,188.5,83.3,179.4,87.7z M204.2,139.7
		c-4.1,9.3-12.4,13.1-22.3,10.5c-4.5-1.2-7.5-4-9.4-8.1c-2.3-4.9-3.3-10.6-2.9-17.1c0.1-5.5,1-11.3,3.1-16.8
		c1.8-4.6,4.6-8.5,8.8-11.3c7.5-5.2,16.1-3.7,21.5,3.6c1.6,2.2,2.7,4.5,3.4,7.1C209.2,118.6,208.8,129.3,204.2,139.7z"/>
	<path class="st2" d="M301.7,135c-1.6-0.3-2-1.2-2.2-2.7c-0.6-5.6-1.3-11.2-2.1-16.7c-1-6.9-2.5-13.6-5.3-20c-1.2-2.7-2.7-5.3-5-7.3
		c-3.4-3-7-3-10.4,0c-1.1,1-2.2,2.2-3.1,3.4c-1.4,1.9-2.6,3.8-3.8,5.8c-9.6,17.1-14.6,36-20.4,54.6c-0.4,1.3,0,2.4,0.8,3.4
		c1.1,1.6,2.7,2.6,4.6,3.1c2.7,0.8,4.7-0.7,4.9-3.6c0.1-2.4,0.3-4.8,0.6-7.2c0.2-1.8,1.1-2.8,2.9-3c1.1-0.1,2.2-0.3,3.3-0.5
		c4.6-0.6,9.2-0.7,13.8-1.2c2.4,0,4.8,0,7.3,0c3.4,0,3.4-0.1,3.3,3.2c0,2.1-0.1,4.2,0.6,6.2c0.3,0.9,0.5,1.8,1.4,2.1
		c2.2,0.9,4.4,1.3,6.7,0.2c2.6-1.3,3.5-3.5,2.4-6.3c-0.3-0.9-0.7-1.8-1-2.8c-0.4-1.1-0.6-1.9,1.1-2.4c2.2-0.6,2.8-2.5,2.8-4.7
		C304.9,136.4,303.6,135.4,301.7,135z M289.9,134.4c-8.7-0.4-17.4-0.1-25.8,2.1c-0.6-1.3,0-2,0.2-2.8c3.3-9.3,7-18.5,11.3-27.4
		c1.2-2.6,2.5-5.1,4.5-7.3c1.5-1.7,2.5-1.5,3.5,0.5c1.6,3.3,2.2,6.9,2.9,10.4c1.6,7.8,2.6,15.6,3.7,23.4
		C290.2,133.5,290,133.8,289.9,134.4z"/>
	<path class="st3" d="M495.6,123.3c7.4-2.1,14.2-5.4,19.5-11.2c2.4-2.6,4-5.7,4.3-9.4c0.6-7.8-5.9-14.3-14-15.3
		c-8-1-15.6,0.7-22.6,4.6c-6.7,3.7-12.4,8.7-17.2,14.8c-1.5,1.9-2.7,4-3.7,6.2c-0.4,0.9-0.6,1.9,0.2,2.8c0.9,0.9,1.8,0.7,2.7,0.3
		c0.9-0.4,1.8-0.8,2.7-1.2c4.6-2.1,9.4-3.8,14.6-4.5c-3.3,2.3-6.7,4.6-10.1,6.9c-1.7,1.1-3.1,2.4-4.4,4c-1.9,2.4-1.4,3.7,1.7,4.2
		c2.2,0.3,4.4,0.5,6.6,0.6C482.7,126.2,489.2,125.1,495.6,123.3z"/>
	<path class="st3" d="M-27.8,22.8c4.6,8,11,14.3,18.4,19.5c6.3,4.4,13.4,7.1,21,8.3c1,0.1,2.1,0.6,2.7-0.4c0.6-0.9-0.3-1.9-0.7-2.7
		c-0.1-0.2-0.2-0.4-0.3-0.6c-3-4.5-5.9-9-9.5-13.1c-1.2-1.4-2.4-2.8-3.7-4.2c-1.2-1.4-2.5-2.8-3.7-4.1c8.2,4.4,15.9,9.5,21.9,17.7
		c0.7-3.6,0.7-4.7,0-7.9C15.8,22.3,7.8,13.5-3.3,7.2c-5.4-3.1-11.2-5-17.7-4.5c-7.1,0.6-11,5.4-9.7,12.4
		C-30.1,17.9-29.1,20.4-27.8,22.8z"/>
	<path class="st2" d="M262.3,95.1c0.9-2.1,0.2-4.4-1.7-5.8c-0.9-0.7-1.9-1.1-2.9-1.5c-2.6-1-5.3-1.3-8.1-1.3
		c-10.4,0-20.7,0.9-30.9,2.9c-1.7,0.3-3.4,0.8-4.9,1.8c-2.1,1.4-2.1,4-0.1,5.5c1.1,0.8,2.3,1.2,3.7,1.3c2.3,0.1,4.6,0.1,6.9-0.3
		c2-0.3,4.1-0.5,6.2-0.8c0.6,1.2,0.4,2.3,0.4,3.4c0.1,4.5-0.4,9-1,13.5c-1.4,11.5-1.6,23.1-1.1,34.6c0.1,2,0.5,3.9,1.4,5.7
		c1.6,3.2,4.1,4.8,7.7,4.7c3.3,0,4.3-1.5,3-4.7c-1.4-3.3-2-6.7-2.2-10.3c-0.5-15.1,0.3-30.2,2.9-45.1c0.5-3,0.5-3,3.5-3
		c4.1,0,8.1-0.2,12.1,1.3C259.6,98,261.4,97.1,262.3,95.1z"/>
	<path class="st3" d="M27.4,47.4c0.6-0.5,0.9-1.2,1.4-1.8c3.1-4.3,6.4-8.4,11.1-11.3c-0.6,1-1.1,2.1-1.7,3.1c-1.7,3-3.1,6.1-4,9.4
		c-0.3,1.2-1.3,2.6-0.3,3.8c1.1,1.2,2.7,0.5,4,0.1c6.5-2,12.5-4.9,17.7-9.3c5.6-4.8,9.7-10.5,10.3-18.1c0.2-3.1-0.5-5.8-2.7-8.2
		c-3-3.3-6.9-3.9-10.9-3.6c-6.3,0.5-11.6,3.5-15.7,8.2c-5.9,6.7-9.2,14.6-10.6,23.4c-0.2,1.3-0.1,2.6,0,3.9
		C26.1,47.7,26.7,48,27.4,47.4z"/>
	<path class="st3" d="M507.4,135.5c-4.6-2.3-9.6-3.1-14.6-3.8c-5.4-0.7-10.8-0.7-16,1c-1.2,0.4-2.6,0.5-3.3,2.1
		c2.7,2.8,7,2.8,10,5.3c-3.5-0.1-6.9-0.9-10.5,0.3c0.1,0.6,0.1,0.8,0.2,1c0.4,0.5,0.8,1.1,1.2,1.6c6.2,7.7,14.3,12.4,23.6,14.8
		c5.4,1.4,10.8,1.5,16.2-0.9c5.4-2.4,6.2-7.1,4.2-11.4C516.1,140.6,512,137.8,507.4,135.5z"/>
	<path class="st1" d="M44.1,111.9c6.5-0.9,12.6-3,18.1-6.7c5.2-3.5,8.8-8.1,10.1-14.4c0.5-2.5,0-4.7-1.5-6.5
		c-2.9-3.6-6.7-5.2-11.3-4.4c-7.6,1.3-13.7,5.5-18.5,11.3c-3.9,4.8-6.7,10.3-7.8,16.5c-0.8,4.8-0.6,4.9,4.4,4.9
		C39.6,112.9,41.9,112.2,44.1,111.9z"/>
</g>
<g>
	<path class="st4" d="M163.3,99.3c-2.3-11.6-7.6-21.5-16.8-29.2c-11.5-9.6-24.9-13-39.5-11.5c-23,2.3-42.3,19.6-47.5,42.2
		c-0.3,1.5-0.3,2.4,0.7,3.6c2,2.3,4.2,4.4,6.9,5.7c12.5,6.4,25.7,8.4,39.5,5.8c2.4-0.4,2.4-0.5,2.4-2.9c0.1-11.2,4.4-20.8,11.7-29
		c4.3-4.9,9.9-6.5,16.3-5c6.5,1.5,9.7,6.7,8.4,13.3c-1.1,5.7-4.6,9.8-8.7,13.5c-5.7,5.2-12.4,8.6-19.7,10.8c-2.8,0.8-2.9,1-2.6,3.7
		c1,8.3,7.3,20.5,19.8,23.6c6.4,1.6,12.5,1,18.8-0.1c1-0.2,1.4-1,1.7-1.8c1.1-2.6,2.1-5.1,3.4-7.6c3.9-7.9,6.2-16.1,5.9-25.4
		C164.2,105.9,163.9,102.5,163.3,99.3z"/>
	<g>
		<path class="st5" d="M417.9,133.2c-2.6-1.8-5.3-3.3-7.8-5.1c-1-0.7-2.3-1-2.8-2.4c2.4-1.4,4.8-2.8,7.1-4.4
			c8.9-6.1,10.1-21.6-2.3-27.5c-4.1-1.9-8.3-3.1-12.8-3.3c-1.9-0.1-3.9,0.3-5.5-1.5c-1-1.1-2.8-0.3-4.1,0.4
			c-0.8,0.4-1.4,1.3-2.2,1.5c-1.3,0.4-2.5,1.7-4,0.4c-2.1-1.8-4.7-2-7.3-1.8c-8,0.7-15.8,2.5-23.7,4c-2.9,0.6-3.9,2-3.7,5
			c0.2,2.7-0.1,5.4-0.4,8.1c0.1-2.6-0.6-5.1-1.2-7.5c-1-4-3.5-6.7-7.3-8.1c-6.6-2.3-12.7-1.6-18,3.4c-1.5,1.4-2.7,3-3.7,4.7
			c-4.7,8-6.4,16.7-5.8,26c0.1,0.9,0.6,2-0.7,3.3c-0.4-2.8-0.7-5.2-0.9-7.6c-0.9-6.9-1.8-13.7-4.1-20.2c-1-2.8-2.2-5.6-4.3-7.8
			c-3-3.1-6.2-3.2-9.3-0.1c-0.9,0.9-1.7,1.8-2.4,2.8c-2.5,3.5-4.3,7.3-6.1,11.1c-5.2,11.1-8.3,23-12,34.7c-0.9,2.8,1.2,5.5,4.3,5.8
			c2.1,0.2,3.1-0.5,3.3-2.7c0.2-1.8,0.3-3.5,0.4-5.3c0.1-1.7,0.9-2.6,2.6-2.8c6.6-0.9,13.3-1.1,20-1.3c1.3,0,1.4,0.7,1.4,1.7
			c-0.1,1.7-0.1,3.3,0.3,5c0.3,1.5,1.1,2.6,2.8,2.8c2,0.2,3.8,0.1,5.2-1.5c1.4-1.6,0.5-3.1,0-4.7c-0.3-0.9-1.7-2.1,0-2.9
			c1.9-0.9,1.8,1.2,2.2,2.1c2.5,5.3,6.5,8.7,12.3,9.8c7.4,1.5,13.6-1,18.8-6.2c0.9-0.9,1.8-1.9,2.9-3.1c0.5,1,0.8,1.8,1.1,2.6
			c2.2,4.7,5.9,7.1,11.1,7c2.9,0,5.7-0.8,8.5-1.6c4.6-1.3,9.1-2.8,14-2.6c1.1,0.1,1.6,0.1,2.3,1c1.9,2.3,4.7,3,6.8,1.8
			c1.6-0.9,2.1-2.4,1.2-3.9c-2.3-3.5-1.9-7.4-2.1-11.3c-0.1-1.4,0.7-1.6,1.9-1.7c2.4-0.1,4.6,0.8,6.7,1.9c4.9,2.6,9.6,5.6,14,9.1
			c1.8,1.4,3.4,2.8,4.6,4.8c1.1,1.8,2.4,2.1,3.9,1.4c1.6-0.7,1.9-1.6,1.4-3.9C423.9,138.2,421.2,135.5,417.9,133.2z M284,129.7
			c-0.8-1.2-0.2-1.9,0.1-2.5c2.7-7.4,5.6-14.8,9.1-21.8c0.8-1.6,1.6-3.2,2.8-4.5c1.5-1.8,2.2-1.7,3.3,0.5c0.1,0.3,0.2,0.6,0.3,0.9
			c2.5,8.3,3.4,16.9,4.6,25.8C297.1,128,290.4,127.9,284,129.7z M348.1,121.2c-6.2-0.8-12,0.3-17.7,1.5c-3.1,0.6-4.1,2.6-3.2,5.4
			c1,3.2,3.2,4.4,6.2,2.9c3.2-1.6,6.4-2.4,9.9-2.3c0.3,0,0.6,0.1,1,0.2c0,5.5-5.3,11.4-10.5,11.9c-5.7,0.5-11.1-3.6-12.3-9.5
			c-1.1-5.6-0.9-11.3-0.1-16.9c0.6-4.5,2.2-8.6,4.8-12.3c1-1.4,2.1-2.6,3.5-3.6c2.5-1.8,5.2-1.8,8-0.9c1.7,0.6,2.7,1.9,3,3.7
			c0.5,2.4,0.6,4.8-0.5,7.2c-1.3,2.7-0.7,4.2,1.5,5.2c2.1,0.9,4,0.1,5.2-2.2c0.4-0.9,0.7-1.8,1.3-3.4
			C348.1,112.8,348.1,117,348.1,121.2z M386.4,99.8c-1.3,5.9-1.2,11.9-1.7,17.9c-0.1,1.5-0.5,2.6-2.1,2.8c-0.2,0-0.4,0.1-0.6,0.2
			c-1.4,0.7-2.8,1.5-2.9,3.3c0,1.9,1.3,3,2.9,3.3c2.6,0.5,2.9,2.1,2.8,4.3c-0.1,2,0.1,4,0.2,6.3c-5.3-2.1-10.2-0.8-15.1,0.7
			c-2.5,0.8-5.2,1.4-7.8,1.9c-3.3,0.6-5.1-0.6-5.9-3.8c-0.9-3.4-0.5-6.9-0.4-10.3c0-1,0.8-1.5,1.8-1.6c5-0.9,9.9-2.5,15.2-1.9
			c0.2,0,0.4,0,0.7,0c1.3-0.2,2.8,0.2,3.1-1.7c0.3-1.9-0.5-3.7-2.1-4.4c-2.7-1.2-5.4-0.9-8.2-0.3c-2.3,0.5-4.5,1.1-6.8,1.5
			c-2.2,0.4-2.9-0.2-3-2.4c-0.1-4.5,0.1-8.9,0.6-13.3c0.2-1.6,0.8-2.5,2.6-2.9c5.3-1.2,10.6-2.5,16.1-2.8c3.4-0.2,6.7-0.1,9.9,1.6
			c0.6,0.3,0.9,0.5,0.9,1.1C386.4,99.3,386.4,99.6,386.4,99.8z M398.1,122.1c-1.8,0-3.5-0.7-5.1-1.3c-1.2-0.4-1-1.3-0.9-2.2
			c0.3-4.3,0.5-8.7,1.6-12.9c0.4-1.8,0.6-3.7,0.9-5.6c0.4-2.7,0.4-2.7,3.1-2.8c0.3,0,0.7,0,1,0c3.3,0,6.4,0.7,9.4,2.1
			c5.2,2.5,7,7.1,4.9,12.5C410.9,116.9,403.5,122,398.1,122.1z"/>
	</g>
	<path class="st6" d="M81.2,64.9c2.5-2.1,2.5-2.8,0.2-5c-4-3.9-8.8-6.8-13.7-9.5c-1.2-0.7-2.5-1.2-3.7-1.9c3-0.3,5.6,0.5,8.3,1.1
		c4.5,1,8.6,2.9,12.8,4.7c1.6,0.7,2.3,0.2,2.3-1.5c0-0.5-0.2-1.1-0.2-1.6c-0.6-4.1-1.9-8-3.7-11.7c-3.4-7.3-7.5-14.2-13.2-19.9
		c-2-2.1-4.3-3.8-7.3-4.5c-3.1-0.7-5.1,0.5-5.5,3.6c-0.2,1.3-0.1,2.7,0,4c0,2.2,1,4.3,1.3,6.6c-0.5-0.3-0.8-0.4-1-0.6
		c-8-7.4-17.6-11.6-28.1-13.7c-7.2-1.5-14.3-1.7-21.4,1.1c-7,2.8-9.8,8.8-7.4,15.9c1.2,3.4,3,6.5,5.4,9.1c4.1,4.5,8.9,8,14.3,10.8
		c4.7,2.5,9.7,4.4,14.8,5.7c0,0.8-0.4,1.2-0.8,1.6c-1.7,1.9-3.2,4-3.9,6.5c-1.2,4-0.2,7,3.3,9.2c2.8,1.8,5.9,2.5,9.2,2.7
		c9.8,0.4,19-1.6,27.7-6.1C74.5,69.6,78,67.5,81.2,64.9z"/>
	<path class="st4" d="M148.8,147.4c-10,1.9-19.5,0.6-27.4-6c-6.1-5.2-10.1-12-11.6-20.1c-0.5-2.7-0.6-2.8-3.4-2.3
		c-6.7,1-13.3,1.1-19.9-0.1c-10.3-1.8-20.2-4.4-27.9-13.2c-0.6,5.8-0.5,10.9,0.4,16.1c1.9,10.7,6.6,20,14.2,27.8
		c8.5,8.6,18.9,13.5,30.7,15.5c1.9,0.3,3.7,0.6,5.6,1c11.8,2.6,23.1,6.6,33.5,12.7c2.7,1.6,4.4,0.7,4.8-2.4c0.1-0.8,0.1-1.6,0.1-2.3
		c0-7.7,1.1-15.2,3.5-22.6c0.5-1.4,1.3-2.8,1.2-4.6C151.1,146.8,150,147.2,148.8,147.4z"/>
	<g>
		<path class="st5" d="M282.1,99.1c1.4,0.6,2.6-0.1,3.4-1.3c0.8-1.2,0.8-2.5,0-3.8c-0.6-1-1.6-1.6-2.6-2c-2-0.8-4-1.3-6.2-1.3
			c-5.9-0.2-11.8,0.3-17.6,1.1c-3.6,0.5-7.4,0.6-10.7,2.3c-1.4,0.7-2.1,0.5-3.2-0.4c-5.4-4.4-11.5-5-17.9-3
			c-5.3,1.6-8.9,5.4-11.7,9.9c-0.7,1.2-1.4,2.4-2.4,4.1c-1.7-7.2-4.5-12.9-11.7-14.8c-7-1.9-12.9,0.1-18.1,6.1
			c-0.2-1.5-0.3-2.5-0.7-3.4c-1.3-2.6-4.2-3.5-6.7-2c-1.1,0.6-1.7,1.4-1.3,2.7c0.4,1.4,0.5,2.8,0.6,4.3c0.2,9.2-1.1,18.5-0.8,27.7
			c0,0.3,0,0.7-0.1,1c-0.9,4.3-0.6,8.7-0.4,13c0.1,1.3,0.3,2.7,0.6,3.9c0.7,2.6,3.4,4.2,6,3.6c2.6-0.5,4.4-3.3,2.8-5.8
			c-2-3.1-2-6.6-1.4-10.4c3.4,1.7,6.6,2.9,10.1,3.3c3.5,0.5,6.9,0.1,10.2-1.2c3.2-1.3,5.5-3.8,7.6-7.1c0.3,2,0.5,3.3,0.8,4.6
			c0.9,4.7,2.8,9,6.7,12c9.9,7.7,24.7,7.3,32.5-4.7c5.6-8.6,6.5-18,4.6-27.9c-0.7-3.4-2.2-6.5-3.6-9.8c3.1-0.3,6-0.3,8.8-0.9
			c1.3-0.3,1.8,0.2,1.8,1.6c0,4.2-0.5,8.4-1,12.6c-0.9,8.3-1.1,16.7-0.8,25c0,1.3,0.3,2.7,0.6,4c0.8,3,3,4.9,5.9,5.1
			c3.2,0.2,4.1-1.1,3-3.7c-1.4-3.3-1.7-6.7-1.7-10.1c0-2.9,0-5.8,0-8.7c0.1-8,1-16,2.2-23.9c0.4-2.8,0.5-2.7,3.4-2.8
			C276,97.9,279.1,97.9,282.1,99.1z M205.8,110.6c-0.4,3.4-1.2,7.8-3.2,11.8c-2.2,4.5-6.4,6.4-11.7,5.6c-5.2-0.9-8.1-3.4-8.7-8.6
			c-1-8.6,2-16.1,8.5-21.7c5.1-4.4,11.3-2.5,13.7,3.8C205.3,104,205.9,106.7,205.8,110.6z M244,132.6c-3.3,6.7-9.3,9.7-16.5,8
			c-3.4-0.8-6.1-2.7-7.6-5.9c-1.9-4.1-3-8.3-2.7-12.4c0.1-5.5,0.8-10.3,2.6-14.9c1.4-3.5,3.5-6.4,6.6-8.6c6-4.2,13-2.9,17.2,3.2
			c2.1,3,2.9,6.4,3.4,10C247.7,119.2,247.2,126.1,244,132.6z"/>
	</g>
	<path class="st6" d="M92.7,51.9c1.2-1.3,2.3-2.7,3.5-4c2.2-2.4,4.5-4.8,7.5-6.4c-2.7,4.7-5.9,9.2-7.8,14.3c1,0.6,1.7,0.7,2.5,0.8
		c4.9,0.1,9.8-0.2,14.6-0.9c3.2-0.5,6.4-1.1,9.3-2.4c4.9-2.1,5.3-4.8,1.5-8.5c-0.1-0.1-0.2-0.3-0.2-0.5c9.8-4.2,17.5-11.5,21.7-20.3
		c1.8-3.8,2.7-7.7,2.4-12c-0.6-7.1-5.6-11.8-12.7-12c-1.4,0-2.9,0.1-4.3,0.4c-5.1,1-9.7,3.2-13.9,6.1c-6,4.2-10.7,9.6-14,16.2
		c-0.7-0.3-0.9-0.9-1.2-1.3c-2.1-3.1-3.7-3.3-6.3-0.6c-2,2-3.1,4.6-4.1,7.2c-1.9,5.1-2.5,10.4-2.6,15.7c0,2.6,0,5.4,1.3,7.8
		C90.9,53.2,91.5,53.3,92.7,51.9z"/>
	<path class="st6" d="M463,126.8c4.7-1.6,8.9-4.1,12.3-7.8c5.7-6.4,4.1-15-3.5-18.6c-1.8-0.9-3.7-1.4-5.8-1.5
		c-14.9-0.2-25.1,7.4-32.9,19.3c-0.7,1.1-1.7,2.4-0.5,3.6c1.2,1.3,2.5,0.1,3.6-0.4c4-1.8,8-3.3,12.4-3.9c-2.6,1.8-5.2,3.6-7.8,5.4
		c-1.6,1.1-3,2.3-4.1,3.9c-0.9,1.4-0.5,2.3,1,2.7c0.6,0.2,1.3,0.2,2,0.3C447.8,130.9,455.5,129.4,463,126.8z"/>
	<path class="st6" d="M477.9,145.9c-1.6-3.6-4.6-5.9-8-7.7c-4.3-2.3-9-3-13.8-3.6c-4.2-0.6-8.4-0.1-12.5,1.1
		c-0.7,0.2-1.7,0.4-1.7,1.3c0,0.9,0.8,1.2,1.5,1.6c0.7,0.4,1.5,0.5,2.2,0.8c1.3,0.6,2.8,0.8,4,2.1c-2.9,0-5.6-0.9-8.5,0.3
		c0.3,0.6,0.5,1,0.7,1.4c5.3,6.6,12.1,10.7,20.2,12.6c4.2,1,8.4,1,12.4-0.9C478.6,153,479.7,150,477.9,145.9z"/>
	<path class="st4" d="M115.6,113.5c8.5-2.7,15.5-7.5,21.1-14.5c1.2-1.5,2.1-3.1,2.8-4.9c1.7-4.4-0.4-7.7-5.2-8c-0.1,0-0.2,0-0.3,0
		c-4-0.3-7.1,1.5-9.8,4.1c-4.9,4.6-7.2,10.5-9,16.8c-0.6,2.1-1.1,4.3-0.5,6.5C115,113.6,115.3,113.6,115.6,113.5z"/>
</g>
</svg>
